<svg xmlns="http://www.w3.org/2000/svg" viewBox="0 0 500 500" width="100%" height="100%">
  <defs>
    <radialGradient id="brass" cx="50%" cy="50%" r="50%" fx="30%" fy="30%">
      <stop offset="0%" stop-color="#fef08a" />
      <stop offset="70%" stop-color="#ca8a04" />
      <stop offset="100%" stop-color="#854d0e" />
    </radialGradient>
    <radialGradient id="center-metal" cx="50%" cy="50%" r="50%">
      <stop offset="0%" stop-color="#ffffff" />
      <stop offset="45%" stop-color="#9ca3af" />
      <stop offset="50%" stop-color="#4b5563" />
      <stop offset="90%" stop-color="#1f2937" />
      <stop offset="100%" stop-color="#111827" />
    </radialGradient>
    <radialGradient id="shadow" cx="50%" cy="50%" r="50%">
      <stop offset="80%" stop-color="rgba(0,0,0,0)" />
      <stop offset="100%" stop-color="rgba(0,0,0,0.6)" />
    </radialGradient>
  </defs>
  <circle cx="250" cy="250" r="240" fill="url(#brass)" filter="drop-shadow(0px 10px 20px rgba(0,0,0,0.5))" />
  <circle cx="250" cy="250" r="222" fill="#1e1b4b" stroke="#0f172a" stroke-width="2" />
  <circle cx="250" cy="250" r="218" fill="#312e81" />
  <path d="M 237.2791113286736 100.54037671862102 L 232.19075586014304 40.75652740606944 A 210 210 0 0 1 267.80924413985696 40.75652740606944 L 262.7208886713264 100.54037671862102 A 150 150 0 0 0 237.2791113286736 100.54037671862102 Z" fill="#10b981" stroke="#ca8a04" stroke-width="1" />
  <path d="M 262.7208886713264 100.54037671862102 L 267.80924413985696 40.75652740606944 A 210 210 0 0 1 302.91539289087626 46.77608114396523 L 287.7967092077688 104.84005795997516 A 150 150 0 0 0 262.7208886713264 100.54037671862102 Z" fill="#ef4444" stroke="#ca8a04" stroke-width="1" />
  <path d="M 287.7967092077688 104.84005795997516 L 302.91539289087626 46.77608114396523 A 210 210 0 0 1 336.4992621312384 58.642017018491515 L 311.78518723659886 113.31572644177965 A 150 150 0 0 0 287.7967092077688 104.84005795997516 Z" fill="#111827" stroke="#ca8a04" stroke-width="1" />
  <path d="M 311.78518723659886 113.31572644177965 L 336.4992621312384 58.642017018491515 A 210 210 0 0 1 367.594705088895 76.01297365879316 L 333.9962179206393 125.72355261342369 A 150 150 0 0 0 311.78518723659886 113.31572644177965 Z" fill="#ef4444" stroke="#ca8a04" stroke-width="1" />
  <path d="M 333.9962179206393 125.72355261342369 L 367.594705088895 76.01297365879316 A 210 210 0 0 1 395.3071624852847 98.38922026954987 L 353.79083034663194 141.70658590682132 A 150 150 0 0 0 333.9962179206393 125.72355261342369 Z" fill="#111827" stroke="#ca8a04" stroke-width="1" />
  <path d="M 353.79083034663194 141.70658590682132 L 395.3071624852847 98.38922026954987 A 210 210 0 0 1 418.8393973770575 125.12703297609981 L 370.59956955504106 160.805023554357 A 150 150 0 0 0 353.79083034663194 141.70658590682132 Z" fill="#ef4444" stroke="#ca8a04" stroke-width="1" />
  <path d="M 370.59956955504106 160.805023554357 L 418.8393973770575 125.12703297609981 A 210 210 0 0 1 437.5144302114094 155.45721358828865 L 383.9388787224353 182.469438277349 A 150 150 0 0 0 370.59956955504106 160.805023554357 Z" fill="#111827" stroke="#ca8a04" stroke-width="1" />
  <path d="M 383.9388787224353 182.469438277349 L 437.5144302114094 155.45721358828865 A 210 210 0 0 1 450.7950142952427 188.50721803192442 L 393.42501021088765 206.07658430851743 A 150 150 0 0 0 383.9388787224353 182.469438277349 Z" fill="#ef4444" stroke="#ca8a04" stroke-width="1" />
  <path d="M 393.42501021088765 206.07658430851743 L 450.7950142952427 188.50721803192442 A 210 210 0 0 1 458.29909140436416 223.32625785315543 L 398.78506528883156 230.94732703796817 A 150 150 0 0 0 393.42501021088765 206.07658430851743 Z" fill="#111827" stroke="#ca8a04" stroke-width="1" />
  <path d="M 398.78506528883156 230.94732703796817 L 458.29909140436416 223.32625785315543 A 210 210 0 0 1 459.8107829029831 258.9126526711911 L 399.86484493070225 256.3661804794222 A 150 150 0 0 0 398.78506528883156 230.94732703796817 Z" fill="#ef4444" stroke="#ca8a04" stroke-width="1" />
  <path d="M 399.86484493070225 256.3661804794222 L 459.8107829029831 258.9126526711911 A 210 210 0 0 1 455.2866001790141 294.2426466991025 L 396.63328584215293 281.60189049935894 A 150 150 0 0 0 399.86484493070225 256.3661804794222 Z" fill="#111827" stroke="#ca8a04" stroke-width="1" />
  <path d="M 396.63328584215293 281.60189049935894 L 455.2866001790141 294.2426466991025 A 210 210 0 0 1 444.856695732267 328.2998603338648 L 389.1833540944764 305.92847166704627 A 150 150 0 0 0 396.63328584215293 281.60189049935894 Z" fill="#ef4444" stroke="#ca8a04" stroke-width="1" />
  <path d="M 389.1833540944764 305.92847166704627 L 444.856695732267 328.2998603338648 A 210 210 0 0 1 428.8211189239954 360.1045295470186 L 377.7293706599967 328.64609253358475 A 150 150 0 0 0 389.1833540944764 305.92847166704627 Z" fill="#111827" stroke="#ca8a04" stroke-width="1" />
  <path d="M 377.7293706599967 328.64609253358475 L 428.8211189239954 360.1045295470186 A 210 210 0 0 1 407.6411841030721 388.7416919119171 L 362.60084578790867 349.10120850851223 A 150 150 0 0 0 377.7293706599967 328.64609253358475 Z" fill="#ef4444" stroke="#ca8a04" stroke-width="1" />
  <path d="M 362.60084578790867 349.10120850851223 L 407.6411841030721 388.7416919119171 A 210 210 0 0 1 381.9261994320849 413.38750840687226 L 344.2329995943464 366.7053631477659 A 150 150 0 0 0 362.60084578790867 349.10120850851223 Z" fill="#111827" stroke="#ca8a04" stroke-width="1" />
  <path d="M 344.2329995943464 366.7053631477659 L 381.9261994320849 413.38750840687226 A 210 210 0 0 1 352.41593820086325 433.33296376384953 L 323.1542415720452 380.95211697417824 A 150 150 0 0 0 344.2329995943464 366.7053631477659 Z" fill="#ef4444" stroke="#ca8a04" stroke-width="1" />
  <path d="M 323.1542415720452 380.95211697417824 L 352.41593820086325 433.33296376384953 A 210 210 0 0 1 319.95935689583206 448.0042635468277 L 299.9709692113086 391.4316168191626 A 150 150 0 0 0 323.1542415720452 380.95211697417824 Z" fill="#111827" stroke="#ca8a04" stroke-width="1" />
  <path d="M 299.9709692113086 391.4316168191626 L 319.95935689583206 448.0042635468277 A 210 210 0 0 1 285.4901722675884 456.9793411730188 L 275.3501230482774 397.84238655215626 A 150 150 0 0 0 299.9709692113086 391.4316168191626 Z" fill="#ef4444" stroke="#ca8a04" stroke-width="1" />
  <path d="M 275.3501230482774 397.84238655215626 L 285.4901722675884 456.9793411730188 A 210 210 0 0 1 250.0 460.0 L 250.0 400.0 A 150 150 0 0 0 275.3501230482774 397.84238655215626 Z" fill="#111827" stroke="#ca8a04" stroke-width="1" />
  <path d="M 250.0 400.0 L 250.0 460.0 A 210 210 0 0 1 214.50982773241176 456.97934117301884 L 224.6498769517227 397.8423865521563 A 150 150 0 0 0 250.0 400.0 Z" fill="#ef4444" stroke="#ca8a04" stroke-width="1" />
  <path d="M 224.6498769517227 397.8423865521563 L 214.50982773241176 456.97934117301884 A 210 210 0 0 1 180.04064310416794 448.0042635468277 L 200.0290307886914 391.4316168191626 A 150 150 0 0 0 224.6498769517227 397.8423865521563 Z" fill="#111827" stroke="#ca8a04" stroke-width="1" />
  <path d="M 200.0290307886914 391.4316168191626 L 180.04064310416794 448.0042635468277 A 210 210 0 0 1 147.5840617991367 433.3329637638495 L 176.8457584279548 380.95211697417824 A 150 150 0 0 0 200.0290307886914 391.4316168191626 Z" fill="#ef4444" stroke="#ca8a04" stroke-width="1" />
  <path d="M 176.8457584279548 380.95211697417824 L 147.5840617991367 433.3329637638495 A 210 210 0 0 1 118.07380056791519 413.38750840687237 L 155.76700040565368 366.705363147766 A 150 150 0 0 0 176.8457584279548 380.95211697417824 Z" fill="#111827" stroke="#ca8a04" stroke-width="1" />
  <path d="M 155.76700040565368 366.705363147766 L 118.07380056791519 413.38750840687237 A 210 210 0 0 1 92.35881589692787 388.7416919119171 L 137.39915421209133 349.1012085085122 A 150 150 0 0 0 155.76700040565368 366.705363147766 Z" fill="#ef4444" stroke="#ca8a04" stroke-width="1" />
  <path d="M 137.39915421209133 349.1012085085122 L 92.35881589692787 388.7416919119171 A 210 210 0 0 1 71.17888107600461 360.1045295470186 L 122.27062934000331 328.64609253358475 A 150 150 0 0 0 137.39915421209133 349.1012085085122 Z" fill="#111827" stroke="#ca8a04" stroke-width="1" />
  <path d="M 122.27062934000331 328.64609253358475 L 71.17888107600461 360.1045295470186 A 210 210 0 0 1 55.14330426773304 328.2998603338648 L 110.81664590552359 305.9284716670463 A 150 150 0 0 0 122.27062934000331 328.64609253358475 Z" fill="#ef4444" stroke="#ca8a04" stroke-width="1" />
  <path d="M 110.81664590552359 305.9284716670463 L 55.14330426773304 328.2998603338648 A 210 210 0 0 1 44.7133998209859 294.24264669910247 L 103.36671415784707 281.6018904993589 A 150 150 0 0 0 110.81664590552359 305.9284716670463 Z" fill="#111827" stroke="#ca8a04" stroke-width="1" />
  <path d="M 103.36671415784707 281.6018904993589 L 44.7133998209859 294.24264669910247 A 210 210 0 0 1 40.18921709701689 258.912652671191 L 100.13515506929778 256.36618047942216 A 150 150 0 0 0 103.36671415784707 281.6018904993589 Z" fill="#ef4444" stroke="#ca8a04" stroke-width="1" />
  <path d="M 100.13515506929778 256.36618047942216 L 40.18921709701689 258.912652671191 A 210 210 0 0 1 41.700908595635894 223.32625785315525 L 101.2149347111685 230.94732703796802 A 150 150 0 0 0 100.13515506929778 256.36618047942216 Z" fill="#111827" stroke="#ca8a04" stroke-width="1" />
  <path d="M 101.2149347111685 230.94732703796802 L 41.700908595635894 223.32625785315525 A 210 210 0 0 1 49.20498570475729 188.5072180319244 L 106.57498978911235 206.07658430851743 A 150 150 0 0 0 101.2149347111685 230.94732703796802 Z" fill="#ef4444" stroke="#ca8a04" stroke-width="1" />
  <path d="M 106.57498978911235 206.07658430851743 L 49.20498570475729 188.5072180319244 A 210 210 0 0 1 62.485569788590624 155.4572135882886 L 116.06112127756472 182.469438277349 A 150 150 0 0 0 106.57498978911235 206.07658430851743 Z" fill="#111827" stroke="#ca8a04" stroke-width="1" />
  <path d="M 116.06112127756472 182.469438277349 L 62.485569788590624 155.4572135882886 A 210 210 0 0 1 81.16060262294252 125.12703297609974 L 129.40043044495894 160.80502355435698 A 150 150 0 0 0 116.06112127756472 182.469438277349 Z" fill="#ef4444" stroke="#ca8a04" stroke-width="1" />
  <path d="M 129.40043044495894 160.80502355435698 L 81.16060262294252 125.12703297609974 A 210 210 0 0 1 104.69283751471542 98.38922026954975 L 146.20916965336815 141.70658590682126 A 150 150 0 0 0 129.40043044495894 160.80502355435698 Z" fill="#111827" stroke="#ca8a04" stroke-width="1" />
  <path d="M 146.20916965336815 141.70658590682126 L 104.69283751471542 98.38922026954975 A 210 210 0 0 1 132.40529491110516 76.01297365879302 L 166.00378207936083 125.72355261342359 A 150 150 0 0 0 146.20916965336815 141.70658590682126 Z" fill="#ef4444" stroke="#ca8a04" stroke-width="1" />
  <path d="M 166.00378207936083 125.72355261342359 L 132.40529491110516 76.01297365879302 A 210 210 0 0 1 163.5007378687615 58.642017018491515 L 188.21481276340108 113.31572644177967 A 150 150 0 0 0 166.00378207936083 125.72355261342359 Z" fill="#111827" stroke="#ca8a04" stroke-width="1" />
  <path d="M 188.21481276340108 113.31572644177967 L 163.5007378687615 58.642017018491515 A 210 210 0 0 1 197.08460710912374 46.77608114396523 L 212.20329079223123 104.84005795997516 A 150 150 0 0 0 188.21481276340108 113.31572644177967 Z" fill="#ef4444" stroke="#ca8a04" stroke-width="1" />
  <path d="M 212.20329079223123 104.84005795997516 L 197.08460710912374 46.77608114396523 A 210 210 0 0 1 232.19075586014318 40.75652740606944 L 237.2791113286737 100.54037671862102 A 150 150 0 0 0 212.20329079223123 104.84005795997516 Z" fill="#111827" stroke="#ca8a04" stroke-width="1" />
  <text x="250.0" y="70.0" fill="#ffffff" font-family="Outfit, sans-serif" font-size="16" font-weight="700" text-anchor="middle" dominant-baseline="central" transform="rotate(0.0, 250.0, 70.0)">0</text>
  <text x="280.42014765793283" y="72.58913613741248" fill="#ffffff" font-family="Outfit, sans-serif" font-size="16" font-weight="700" text-anchor="middle" dominant-baseline="central" transform="rotate(9.729729729729726, 280.42014765793283, 72.58913613741248)">32</text>
  <text x="309.96516305357034" y="80.28205981700484" fill="#ffffff" font-family="Outfit, sans-serif" font-size="16" font-weight="700" text-anchor="middle" dominant-baseline="central" transform="rotate(19.459459459459453, 309.96516305357034, 80.28205981700484)">15</text>
  <text x="337.7850898864542" y="92.85745963098614" fill="#ffffff" font-family="Outfit, sans-serif" font-size="16" font-weight="700" text-anchor="middle" dominant-baseline="central" transform="rotate(29.189189189189193, 337.7850898864542, 92.85745963098614)">19</text>
  <text x="363.0795995132156" y="109.95356422268088" fill="#ffffff" font-family="Outfit, sans-serif" font-size="16" font-weight="700" text-anchor="middle" dominant-baseline="central" transform="rotate(38.91891891891892, 363.0795995132156, 109.95356422268088)">4</text>
  <text x="385.1210149454904" y="131.0785497897853" fill="#ffffff" font-family="Outfit, sans-serif" font-size="16" font-weight="700" text-anchor="middle" dominant-baseline="central" transform="rotate(48.648648648648646, 385.1210149454904, 131.0785497897853)">21</text>
  <text x="403.27524479199604" y="155.6246889596983" fill="#ffffff" font-family="Outfit, sans-serif" font-size="16" font-weight="700" text-anchor="middle" dominant-baseline="central" transform="rotate(58.37837837837838, 403.27524479199604, 155.6246889596983)">2</text>
  <text x="417.0200249133717" y="182.88583399954447" fill="#ffffff" font-family="Outfit, sans-serif" font-size="16" font-weight="700" text-anchor="middle" dominant-baseline="central" transform="rotate(68.10810810810811, 417.0200249133717, 182.88583399954447)">25</text>
  <text x="425.9599430105835" y="212.07773140076927" fill="#ffffff" font-family="Outfit, sans-serif" font-size="16" font-weight="700" text-anchor="middle" dominant-baseline="central" transform="rotate(77.83783783783784, 425.9599430105835, 212.07773140076927)">17</text>
  <text x="429.83781391684266" y="242.3605834246933" fill="#ffffff" font-family="Outfit, sans-serif" font-size="16" font-weight="700" text-anchor="middle" dominant-baseline="central" transform="rotate(87.56756756756756, 429.83781391684266, 242.3605834246933)">34</text>
  <text x="428.54207834659786" y="272.86320755443813" fill="#ffffff" font-family="Outfit, sans-serif" font-size="16" font-weight="700" text-anchor="middle" dominant-baseline="central" transform="rotate(97.29729729729729, 428.54207834659786, 272.86320755443813)">6</text>
  <text x="422.1100122530652" y="302.7080988297791" fill="#ffffff" font-family="Outfit, sans-serif" font-size="16" font-weight="700" text-anchor="middle" dominant-baseline="central" transform="rotate(107.02702702702703, 422.1100122530652, 302.7080988297791)">27</text>
  <text x="410.72665446692235" y="331.0366740671812" fill="#ffffff" font-family="Outfit, sans-serif" font-size="16" font-weight="700" text-anchor="middle" dominant-baseline="central" transform="rotate(116.75675675675676, 410.72665446692235, 331.0366740671812)">13</text>
  <text x="394.71948346604927" y="357.03397173477157" fill="#ffffff" font-family="Outfit, sans-serif" font-size="16" font-weight="700" text-anchor="middle" dominant-baseline="central" transform="rotate(126.48648648648648, 394.71948346604927, 357.03397173477157)">36</text>
  <text x="374.5489964159583" y="379.9520969118144" fill="#ffffff" font-family="Outfit, sans-serif" font-size="16" font-weight="700" text-anchor="middle" dominant-baseline="central" transform="rotate(136.21621621621622, 374.5489964159583, 379.9520969118144)">11</text>
  <text x="350.7954615047672" y="399.13173686389155" fill="#ffffff" font-family="Outfit, sans-serif" font-size="16" font-weight="700" text-anchor="middle" dominant-baseline="central" transform="rotate(145.94594594594594, 350.7954615047672, 399.13173686389155)">30</text>
  <text x="324.1422246839187" y="414.02112826986445" fill="#ffffff" font-family="Outfit, sans-serif" font-size="16" font-weight="700" text-anchor="middle" dominant-baseline="central" transform="rotate(155.67567567567568, 324.1422246839187, 414.02112826986445)">8</text>
  <text x="295.3560510493225" y="424.1919304480298" fill="#ffffff" font-family="Outfit, sans-serif" font-size="16" font-weight="700" text-anchor="middle" dominant-baseline="central" transform="rotate(165.40540540540542, 295.3560510493225, 424.1919304480298)">23</text>
  <text x="265.26506640559165" y="429.3515479376548" fill="#ffffff" font-family="Outfit, sans-serif" font-size="16" font-weight="700" text-anchor="middle" dominant-baseline="central" transform="rotate(175.13513513513513, 265.26506640559165, 429.3515479376548)">10</text>
  <text x="234.73493359440832" y="429.3515479376548" fill="#ffffff" font-family="Outfit, sans-serif" font-size="16" font-weight="700" text-anchor="middle" dominant-baseline="central" transform="rotate(184.86486486486487, 234.73493359440832, 429.3515479376548)">5</text>
  <text x="204.6439489506775" y="424.1919304480298" fill="#ffffff" font-family="Outfit, sans-serif" font-size="16" font-weight="700" text-anchor="middle" dominant-baseline="central" transform="rotate(194.59459459459458, 204.6439489506775, 424.1919304480298)">24</text>
  <text x="175.8577753160813" y="414.02112826986445" fill="#ffffff" font-family="Outfit, sans-serif" font-size="16" font-weight="700" text-anchor="middle" dominant-baseline="central" transform="rotate(204.32432432432432, 175.8577753160813, 414.02112826986445)">16</text>
  <text x="149.20453849523284" y="399.1317368638916" fill="#ffffff" font-family="Outfit, sans-serif" font-size="16" font-weight="700" text-anchor="middle" dominant-baseline="central" transform="rotate(214.05405405405406, 149.20453849523284, 399.1317368638916)">33</text>
  <text x="125.4510035840417" y="379.9520969118144" fill="#ffffff" font-family="Outfit, sans-serif" font-size="16" font-weight="700" text-anchor="middle" dominant-baseline="central" transform="rotate(223.78378378378378, 125.4510035840417, 379.9520969118144)">1</text>
  <text x="105.28051653395073" y="357.0339717347716" fill="#ffffff" font-family="Outfit, sans-serif" font-size="16" font-weight="700" text-anchor="middle" dominant-baseline="central" transform="rotate(233.51351351351352, 105.28051653395073, 357.0339717347716)">20</text>
  <text x="89.27334553307765" y="331.03667406718114" fill="#ffffff" font-family="Outfit, sans-serif" font-size="16" font-weight="700" text-anchor="middle" dominant-baseline="central" transform="rotate(243.24324324324326, 89.27334553307765, 331.03667406718114)">14</text>
  <text x="77.88998774693485" y="302.70809882977915" fill="#ffffff" font-family="Outfit, sans-serif" font-size="16" font-weight="700" text-anchor="middle" dominant-baseline="central" transform="rotate(252.97297297297297, 77.88998774693485, 302.70809882977915)">31</text>
  <text x="71.45792165340214" y="272.8632075544382" fill="#ffffff" font-family="Outfit, sans-serif" font-size="16" font-weight="700" text-anchor="middle" dominant-baseline="central" transform="rotate(262.7027027027027, 71.45792165340214, 272.8632075544382)">9</text>
  <text x="70.16218608315734" y="242.36058342469323" fill="#ffffff" font-family="Outfit, sans-serif" font-size="16" font-weight="700" text-anchor="middle" dominant-baseline="central" transform="rotate(272.43243243243245, 70.16218608315734, 242.36058342469323)">22</text>
  <text x="74.04005698941648" y="212.0777314007692" fill="#ffffff" font-family="Outfit, sans-serif" font-size="16" font-weight="700" text-anchor="middle" dominant-baseline="central" transform="rotate(282.1621621621622, 74.04005698941648, 212.0777314007692)">18</text>
  <text x="82.97997508662831" y="182.88583399954447" fill="#ffffff" font-family="Outfit, sans-serif" font-size="16" font-weight="700" text-anchor="middle" dominant-baseline="central" transform="rotate(291.8918918918919, 82.97997508662831, 182.88583399954447)">29</text>
  <text x="96.72475520800396" y="155.62468895969835" fill="#ffffff" font-family="Outfit, sans-serif" font-size="16" font-weight="700" text-anchor="middle" dominant-baseline="central" transform="rotate(301.6216216216216, 96.72475520800396, 155.62468895969835)">7</text>
  <text x="114.87898505450966" y="131.0785497897853" fill="#ffffff" font-family="Outfit, sans-serif" font-size="16" font-weight="700" text-anchor="middle" dominant-baseline="central" transform="rotate(311.35135135135135, 114.87898505450966, 131.0785497897853)">28</text>
  <text x="136.9204004867844" y="109.95356422268088" fill="#ffffff" font-family="Outfit, sans-serif" font-size="16" font-weight="700" text-anchor="middle" dominant-baseline="central" transform="rotate(321.0810810810811, 136.9204004867844, 109.95356422268088)">12</text>
  <text x="162.21491011354584" y="92.85745963098609" fill="#ffffff" font-family="Outfit, sans-serif" font-size="16" font-weight="700" text-anchor="middle" dominant-baseline="central" transform="rotate(330.81081081081084, 162.21491011354584, 92.85745963098609)">35</text>
  <text x="190.03483694642964" y="80.28205981700484" fill="#ffffff" font-family="Outfit, sans-serif" font-size="16" font-weight="700" text-anchor="middle" dominant-baseline="central" transform="rotate(340.5405405405405, 190.03483694642964, 80.28205981700484)">3</text>
  <text x="219.57985234206706" y="72.58913613741251" fill="#ffffff" font-family="Outfit, sans-serif" font-size="16" font-weight="700" text-anchor="middle" dominant-baseline="central" transform="rotate(350.27027027027026, 219.57985234206706, 72.58913613741251)">26</text>
  <circle cx="250" cy="250" r="150" fill="none" stroke="url(#brass)" stroke-width="3" />
  <circle cx="250" cy="250" r="148" fill="url(#center-metal)" />
  <circle cx="250" cy="250" r="148" fill="url(#shadow)" />
  <circle cx="250" cy="250" r="60" fill="url(#brass)" filter="drop-shadow(0 4px 8px rgba(0,0,0,0.5))" />
  <circle cx="250" cy="250" r="40" fill="none" stroke="#fef08a" stroke-width="2" opacity="0.5" />
  <circle cx="250" cy="250" r="15" fill="#1e1b4b" stroke="url(#brass)" stroke-width="3" />
  <circle cx="250" cy="250" r="5" fill="#fef08a" />
  <circle cx="305.0" cy="250.0" r="10" fill="url(#brass)" />
  <line x1="250" y1="250" x2="305.0" y2="250.0" stroke="url(#brass)" stroke-width="6" />
  <circle cx="250.0" cy="305.0" r="10" fill="url(#brass)" />
  <line x1="250" y1="250" x2="250.0" y2="305.0" stroke="url(#brass)" stroke-width="6" />
  <circle cx="195.0" cy="250.0" r="10" fill="url(#brass)" />
  <line x1="250" y1="250" x2="195.0" y2="250.0" stroke="url(#brass)" stroke-width="6" />
  <circle cx="250.0" cy="195.0" r="10" fill="url(#brass)" />
  <line x1="250" y1="250" x2="250.0" y2="195.0" stroke="url(#brass)" stroke-width="6" />
</svg>